<?xml version="1.0" encoding="UTF-8"?>
<svg id="Calque_2" xmlns="http://www.w3.org/2000/svg" viewBox="0 0 850 1205.5">
  <defs>
    <style>
      .cls-1 {
        fill: #fff;
      }
    </style>
  </defs>
  <g id="Layer_1">
    <g>
      <path class="cls-1" d="M850,116.27V0H0v116.27h71.91v77.59c-.96,10.07-4.05,59.87,19.32,129.67,23.14,69.13,78.07,173.09,208.29,275.82,1.63,1.29,1.97,2.92,1.97,4.06s-.34,2.78-1.97,4.06c-130.21,102.73-185.14,206.7-208.28,275.82-23.37,69.8-20.28,119.6-19.32,129.67v76.25H0v116.27h850v-116.27h-75.31v-76.25c.96-10.07,4.05-59.87-19.32-129.67-23.14-69.13-78.07-173.09-208.29-275.82-1.63-1.29-1.97-2.92-1.97-4.06s.34-2.78,1.97-4.06c0,0,0,0,0,0,130.21-102.73,185.14-206.7,208.28-275.82,23.37-69.8,20.28-119.6,19.32-129.67v-77.59h75.31ZM708.3,311.08c-21.35,62.11-71.88,155.92-191.3,250.14h0c-13,10.26-20.46,25.64-20.46,42.2s7.46,31.94,20.46,42.2c119.42,94.22,169.95,188.03,191.3,250.14,23.03,66.98,18.05,112.56,18.01,112.89-.13,1.02-.19,2.04-.19,3.06v67.93H120.48v-67.93c0-1.02-.05-1.93-.18-2.95-.05-.45-5.03-46.03,18-113.01,21.35-62.11,71.88-155.92,191.3-250.14,13-10.26,20.46-25.64,20.46-42.2s-7.46-31.94-20.46-42.2c-119.42-94.22-169.95-188.03-191.3-250.14-23.03-66.98-18.05-112.56-18.01-112.89.13-1.02.19-2.04.19-3.06v-67.93h605.63v67.93c0,1.02.05,1.93.18,2.95.05.45,5.03,46.03-18,113.01Z"/>
      <path class="cls-1" d="M187.11,1035.77h473.11c0-130.65-105.91-236.56-236.56-236.56s-236.56,105.91-236.56,236.56Z"/>
      <path class="cls-1" d="M430.31,350.95c-33.68,10.62-68.9,15.81-104.17,13.97-42.42-2.22-82.15-11.43-118.98-28.12,0,0,43.6,64.08,145.68,145.68,0,0,40.29,28.91,66.41,82.7,4.76,9.81,18.26,11.01,24.72,2.23,34.9-47.39,123.45-163.15,185.51-205.22-61.93-29.17-128.19-33.62-199.17-11.24Z"/>
    </g>
  </g>
</svg>